# xmcd
#
# Track frame offsets: 
#        150
#        18203
#        40433
#        57470
#        76345
#        95451
#        115188
#        142111
#        160496
#        181147
#        202949
#        221257
#        241655
#        272974
#
# Disc length: 4137 seconds
#
# Revision: 0
# Processed by: cddbd v1.5.2PL0 Copyright (c) Steve Scherf et al.
# Submitted via: ExactAudioCopy v1.0b6
#
DISCID=be10270e
DTITLE=Various Artist - Song DISCovery 061 (Mar-Apr 2007)
DYEAR=2007
DGENRE=Modern Praise and Worship
TTITLE0=Mark Roach - As Long As I Have You
TTITLE1=Vineyard Music UK - Come Lord Come
TTITLE2=Mac Powell - Restore to Me [feat. Candi Pearson-Shelton]
TTITLE3=Brian Doerksen - He Is Here [feat. Christine Dente]
TTITLE4=Julia A'Bell - For Who You Are
TTITLE5=Mike Hohnholz - Meet Us Here
TTITLE6=Casey Corum - I Will Trust You
TTITLE7=Stephen Hurd - Why I Came
TTITLE8=Day One Worship - You Are All I Need
TTITLE9=Ken Reynolds - Another Chance
TTITLE10=Isaiah Six - Called to Know You
TTITLE11=Scott Dyer - Not I But Christ
TTITLE12=Brisbane City Church - I Will Sing
TTITLE13=DATA
EXTD=
EXTT0=
EXTT1=
EXTT2=
EXTT3=
EXTT4=
EXTT5=
EXTT6=
EXTT7=
EXTT8=
EXTT9=
EXTT10=
EXTT11=
EXTT12=
EXTT13=
PLAYORDER=
